HIERARCHY
ROOT Hips
{
	OFFSET 0.000000 0.000000 0.000000
	CHANNELS 6 Xposition Yposition Zposition Xrotation Yrotation Zrotation
	JOINT Chest
	{
		OFFSET 0.000000 0.009282 11.569106
		CHANNELS 3 Xrotation Yrotation Zrotation
		JOINT Chest2
		{
			OFFSET 0.000000 -0.016863 9.269641
			CHANNELS 3 Xrotation Yrotation Zrotation
			JOINT Chest3
			{
				OFFSET 0.000000 0.000000 8.374491
				CHANNELS 3 Xrotation Yrotation Zrotation
				JOINT Chest4
				{
					OFFSET 0.000000 0.000000 8.374493
					CHANNELS 3 Xrotation Yrotation Zrotation
					JOINT Neck
					{
						OFFSET 0.000000 -0.000001 12.152554
						CHANNELS 3 Xrotation Yrotation Zrotation
						JOINT Head
						{
							OFFSET 0.000000 -0.040100 7.802319
							CHANNELS 3 Xrotation Yrotation Zrotation
							End Site
							{
								OFFSET 0.000000 -0.020946 14.853096
							}
						}
					}
					JOINT RightCollar
					{
						OFFSET -2.894404 0.000000 6.791374
						CHANNELS 3 Xrotation Yrotation Zrotation
						JOINT RightShoulder
						{
							OFFSET -13.574684 0.000000 0.000000
							CHANNELS 3 Xrotation Yrotation Zrotation
							JOINT RightElbow
							{
								OFFSET -23.923903 0.000000 0.000000
								CHANNELS 3 Xrotation Yrotation Zrotation
								JOINT RightWrist
								{
									OFFSET -19.846718 -0.012765 0.000000
									CHANNELS 3 Xrotation Yrotation Zrotation
									End Site
									{
										OFFSET -14.973145 0.000000 0.000000
									}
								}
							}
						}
					}
					JOINT LeftCollar
					{
						OFFSET 2.894404 0.000000 6.791374
						CHANNELS 3 Xrotation Yrotation Zrotation
						JOINT LeftShoulder
						{
							OFFSET 13.574684 0.000000 0.000000
							CHANNELS 3 Xrotation Yrotation Zrotation
							JOINT LeftElbow
							{
								OFFSET 23.923903 0.000000 0.000000
								CHANNELS 3 Xrotation Yrotation Zrotation
								JOINT LeftWrist
								{
									OFFSET 19.846718 -0.012765 0.000000
									CHANNELS 3 Xrotation Yrotation Zrotation
									End Site
									{
										OFFSET 14.973145 0.000000 0.000000
									}
								}
							}
						}
					}
				}
			}
		}
	}
	JOINT RightHip
	{
		OFFSET -9.469263 -0.004642 0.045487
		CHANNELS 3 Xrotation Yrotation Zrotation
		JOINT RightKnee
		{
			OFFSET 0.000000 -0.002666 -40.478676
			CHANNELS 3 Xrotation Yrotation Zrotation
			JOINT RightAnkle
			{
				OFFSET 0.000000 -0.049110 -35.224068
				CHANNELS 3 Xrotation Yrotation Zrotation
				JOINT RightToe
				{
					OFFSET 0.000000 -12.539530 -6.151390
					CHANNELS 3 Xrotation Yrotation Zrotation
					End Site
					{
						OFFSET 0.000000 -5.044995 -1.291870
					}
				}
			}
		}
	}
	JOINT LeftHip
	{
		OFFSET 9.469263 -0.004642 0.045487
		CHANNELS 3 Xrotation Yrotation Zrotation
		JOINT LeftKnee
		{
			OFFSET 0.000000 -0.002666 -40.478676
			CHANNELS 3 Xrotation Yrotation Zrotation
			JOINT LeftAnkle
			{
				OFFSET 0.000000 -0.049110 -35.224068
				CHANNELS 3 Xrotation Yrotation Zrotation
				JOINT LeftToe
				{
					OFFSET 0.000000 -12.539530 -6.151390
					CHANNELS 3 Xrotation Yrotation Zrotation
					End Site
					{
						OFFSET 0.000000 -5.044995 -1.291870
					}
				}
			}
		}
	}
}
MOTION
Frames: 5
Frame Time: 0.016667
-20.555639 20.763390 83.067795 3.495105 9.300185 -114.085667 6.389944 -0.433109 0.556390 2.834623 -0.186970 0.228956 2.834620 -0.186970 0.228962 2.125896 -0.141293 0.170862 15.396619 -0.229390 -1.100232 -7.587896 -0.010355 -2.086695 -7.738009 -7.741012 -3.887251 31.122034 -38.044270 8.695284 58.684282 5.513992 63.571002 -52.771025 31.830826 90.851556 -7.375790 9.793136 -2.891025 18.989884 43.198139 4.550540 59.287586 6.516480 -59.538704 -27.832249 -28.566303 -83.942171 10.406960 -1.317197 -8.338258 1.749656 -1.491959 -3.542083 -3.778052 1.057525 -1.851429 0.118118 -0.010762 -0.039047 10.575581 3.877646 0.592537 3.642869 -1.369733 4.796040 -3.397052 -0.784339 6.888707 0.095657 0.089281 0.046246 
-20.555639 20.763390 83.067795 3.495105 9.300185 -114.085667 6.389944 -0.433109 0.556390 2.834623 -0.186970 0.228956 2.834620 -0.186970 0.228962 2.125896 -0.141293 0.170862 15.396619 -0.229390 -1.100232 -7.587896 -0.010355 -2.086695 -7.738009 -7.741012 -3.887251 31.122034 -38.044270 8.695284 58.684282 5.513992 63.571002 -52.771025 31.830826 90.851556 -7.375790 9.793136 -2.891025 18.989884 43.198139 4.550540 59.287586 6.516480 -59.538704 -27.832249 -28.566303 -83.942171 10.406960 -1.317197 -8.338258 1.749656 -1.491959 -3.542083 -3.778052 1.057525 -1.851429 0.118118 -0.010762 -0.039047 10.575581 3.877646 0.592537 3.642869 -1.369733 4.796040 -3.397052 -0.784339 6.888707 0.095657 0.089281 0.046246 
-20.582390 20.786472 83.069130 3.526082 9.381328 -114.072390 6.333839 -0.447553 0.543488 2.810577 -0.194745 0.222905 2.810577 -0.194745 0.222908 2.107860 -0.147087 0.166286 15.564434 -0.232467 -1.087082 -7.276453 -0.023409 -2.063817 -7.663716 -7.691639 -3.887084 31.149614 -38.042310 8.802210 58.729559 5.512626 63.511627 -52.941305 31.854325 90.961017 -7.233716 9.726571 -2.785458 19.808027 43.406699 3.280641 59.152198 6.668963 -58.916795 -28.975288 -28.625130 -85.316945 10.504217 -1.324602 -8.333319 1.784939 -1.483445 -3.547819 -3.825643 1.059101 -1.875105 0.102684 -0.008977 -0.039330 10.677048 3.892094 0.515102 3.662125 -1.403034 4.846968 -3.421960 -0.777522 6.895377 0.080845 0.082810 0.045981 
-20.602892 20.813692 83.071823 3.551793 9.462598 -114.059870 6.274955 -0.459675 0.517903 2.786070 -0.200855 0.211757 2.786073 -0.200855 0.211752 2.089483 -0.151610 0.157909 15.734422 -0.242067 -1.065910 -6.961131 -0.051238 -2.028693 -7.626833 -7.643324 -3.903048 31.217690 -37.986664 8.937536 58.780041 5.477235 63.472169 -53.078189 31.879624 91.047678 -7.131659 9.666091 -2.700151 20.552975 43.541684 2.224651 59.054184 6.951943 -58.453210 -29.916153 -28.681614 -86.400090 10.595211 -1.330281 -8.366425 1.825485 -1.472506 -3.539631 -3.877235 1.059623 -1.904356 0.090069 -0.005639 -0.039753 10.770355 3.900438 0.429331 3.689283 -1.427790 4.912401 -3.445061 -0.763081 6.922919 0.064505 0.074902 0.045716 
-20.619991 20.842995 83.074394 3.573803 9.538695 -114.050615 6.221931 -0.474373 0.479258 2.763708 -0.207676 0.195283 2.763708 -0.207676 0.195284 2.072712 -0.156645 0.145530 15.892028 -0.255397 -1.038703 -6.668928 -0.087771 -1.983872 -7.689862 -7.596358 -3.913208 31.350920 -37.884696 9.073121 58.815661 5.404697 63.440047 -53.180546 31.887435 91.116554 -7.122285 9.635916 -2.621299 21.169855 43.590537 1.430969 59.034397 7.342096 -58.149485 -30.620465 -28.784729 -87.203006 10.683731 -1.338271 -8.449370 1.854045 -1.460793 -3.499142 -3.923792 1.059235 -1.859559 0.081627 0.000828 -0.043562 10.849785 3.905938 0.359249 3.729297 -1.448280 4.952327 -3.474179 -0.750744 6.954460 0.050216 0.069502 0.047018 
